Patient4_TMGait_0pt2_02_left_18_GRF.mot
version=1
nRows=78
nColumns=19
inDegrees=no
endheader
time	F1x	F1y	F1z	M1x	M1y	M1z	F2x	F2y	F2z	M2x	M2y	M2z	EC1x	EC1y	EC1z	EC2x	EC2y	EC2z
40.99	2.4946	71.0478	7.8643	-22.1112	-7.1351	73.6823	-25.0547	717.7566	-54.3413	260.5852	74.7043	834.614	-0.0592	0.0182	-0.0073	-0.0462	0.0165	0.9585
41.0113	1.2306	57.083	6.598	-17.796	-6.291	59.4436	-25.5612	746.5271	-55.9657	271.3414	76.5848	865.955	-0.0592	0.0182	-0.0073	-0.0462	0.0165	0.9585
41.0326	0.012996	42.7395	5.2477	-13.3522	-5.3438	44.7413	-26.2884	777.3234	-57.3064	282.8958	78.1735	899.245	-0.0592	0.0182	-0.0073	-0.0462	0.0165	0.9585
41.0539	-0.94197	29.469	3.9282	-9.2344	-4.3386	31.0767	-27.1359	807.1844	-58.1634	294.1517	79.1892	931.1534	-0.0592	0.0182	-0.0073	-0.0462	0.0165	0.9585
41.0751	-1.5127	18.3561	2.7502	-5.7816	-3.3499	19.5862	-27.9568	833.2976	-58.4445	304.0524	79.4552	958.5447	-0.0592	0.0182	-0.0073	-0.0462	0.0165	0.9585
41.0964	-1.7641	9.9285	1.8051	-3.1581	-2.4911	10.8348	-28.5823	853.1895	-58.1549	311.6562	78.9057	978.6852	-0.0592	0.0182	-0.0073	-0.0462	0.0165	0.9585
41.1177	-1.8152	4.1294	1.1247	-1.3481	-1.8315	4.7821	-28.8232	864.9041	-57.3735	316.2115	77.5632	989.4185	-0.0592	0.0182	-0.0073	-0.0462	0.0165	0.9585
41.139	-1.7598	0.53444	0.68951	-0.22239	-1.3822	1.0019	-28.4958	867.3188	-56.2121	317.2816	75.4996	989.509	-0.0592	0.0182	-0.0073	-0.0462	0.0165	0.9585
41.1603	-1.6667	-1.4229	0.45491	0.39533	-1.1205	-1.0905	-27.4578	860.4237	-54.791	314.8527	72.8225	978.9555	-0.0592	0.0182	-0.0073	-0.0462	0.0165	0.9585
41.1816	-1.5829	-2.3141	0.36732	0.68593	-1.0082	-2.091	-25.6364	845.4665	-53.21	309.3872	69.6474	959.1458	-0.0592	0.0182	-0.0073	-0.0462	0.0165	0.9585
41.2029	-1.5322	-2.6483	0.37404	0.81065	-0.99989	-2.5367	-23.0286	824.8129	-51.5434	301.7717	66.0904	932.7037	-0.0592	0.0182	-0.0073	-0.0462	0.0165	0.9585
41.2241	-1.5186	-2.8347	0.42605	0.89849	-1.0462	-2.8623	-19.7044	801.4996	-49.8584	293.1483	62.2817	902.9988	-0.0592	0.0182	-0.0073	-0.0462	0.0165	0.9585
41.2454	-1.5274	-3.171	0.47959	1.0413	-1.0974	-3.3818	-15.792	778.6328	-48.2304	284.6854	58.3743	873.4765	-0.0592	0.0182	-0.0073	-0.0462	0.0165	0.9585
41.2667	-1.5234	-3.8254	0.49764	1.2887	-1.1009	-4.274	-11.4337	758.8108	-46.7452	277.3581	54.5306	847.0203	-0.0592	0.0182	-0.0073	-0.0462	0.0165	0.9585
41.288	-1.4545	-4.8222	0.44636	1.6442	-0.99896	-5.5625	-6.7584	743.7027	-45.4894	271.7924	50.9002	825.4924	-0.0592	0.0182	-0.0073	-0.0462	0.0165	0.9585
41.3093	-1.2507	-6.0202	0.29571	2.0571	-0.73122	-7.0776	-1.8942	733.858	-44.5408	268.195	47.6107	809.5416	-0.0592	0.0182	-0.0073	-0.0462	0.0165	0.9585
41.3306	-0.82598	-7.078	0.017992	2.4096	-0.23293	-8.4201	3.0251	728.7731	-43.9558	266.3802	44.7602	798.6936	-0.0592	0.0182	-0.0073	-0.0462	0.0165	0.9585
41.3519	-0.085224	-7.4113	-0.40501	2.4999	0.55084	-8.9012	7.8643	727.2152	-43.7561	265.8895	42.4094	791.707	-0.0592	0.0182	-0.0073	-0.0462	0.0165	0.9585
41.3731	1.054	-6.1577	-0.9681	2.0282	1.6427	-7.4955	12.49	727.596	-43.9256	266.1291	40.581	786.971	-0.0592	0.0182	-0.0073	-0.0462	0.0165	0.9585
41.3944	2.6338	-2.1706	-1.6305	0.59765	3.0073	-2.8263	16.7521	728.2067	-44.4081	266.4571	39.2598	782.7636	-0.0592	0.0182	-0.0073	-0.0462	0.0165	0.9585
41.4157	4.6153	5.9302	-2.2936	-2.2671	4.5112	6.7682	20.4792	727.3311	-45.1126	266.2288	38.4019	777.3741	-0.0592	0.0182	-0.0073	-0.0462	0.0165	0.9585
41.437	6.8226	19.5983	-2.7756	-7.0627	5.8716	23.0462	23.4923	723.3152	-45.9008	264.8259	37.9201	769.1523	-0.0592	0.0182	-0.0073	-0.0462	0.0165	0.9585
41.4583	8.8701	40.053	-2.7901	-14.1991	6.6051	47.4983	25.6251	714.6	-46.5751	261.6755	37.667	756.539	-0.0592	0.0182	-0.0073	-0.0462	0.0165	0.9585
41.4796	10.0915	67.8247	-1.9456	-23.8394	6.0062	80.8102	26.7361	699.7706	-46.8746	256.2699	37.4297	738.1142	-0.0592	0.0182	-0.0073	-0.0462	0.0165	0.9585
41.5009	9.7772	102.5907	0.15955	-35.8441	3.3437	122.6636	26.7263	677.7372	-46.5147	248.2266	36.9646	712.7784	-0.0592	0.0182	-0.0073	-0.0462	0.0165	0.9585
41.5221	7.7329	143.4652	3.7727	-49.8781	-1.7487	172.0281	25.5639	647.9999	-45.264	237.3802	36.0612	680.0239	-0.0592	0.0182	-0.0073	-0.0462	0.0165	0.9585
41.5434	4.1928	188.975	8.774	-65.4299	-9.0369	227.0886	23.3114	610.8508	-42.9932	223.8511	34.5796	640.1412	-0.0592	0.0182	-0.0073	-0.0462	0.0165	0.9585
41.5647	-0.32775	237.0467	14.5272	-81.8279	-17.5499	285.2414	20.1607	567.5239	-39.7264	208.0947	32.4853	594.3597	-0.0592	0.0182	-0.0073	-0.0462	0.0165	0.9585
41.586	-5.2104	285.5585	20.213	-98.4062	-26.0635	343.7937	16.4273	520.2093	-35.6866	190.9026	29.8922	544.852	-0.0592	0.0182	-0.0073	-0.0462	0.0165	0.9585
41.6073	-9.8632	332.8037	25.2367	-114.6231	-33.6492	400.5564	12.4853	471.7757	-31.2516	173.3081	27.0379	494.4679	-0.0592	0.0182	-0.0073	-0.0462	0.0165	0.9585
41.6286	-13.7835	377.3491	29.2962	-129.9972	-39.7746	453.717	8.6791	425.2047	-26.8371	156.3885	24.1987	446.1761	-0.0592	0.0182	-0.0073	-0.0462	0.0165	0.9585
41.6499	-16.5915	417.7399	32.3312	-144.0123	-44.2482	501.4892	5.2446	383.0168	-22.8069	141.0596	21.6333	402.4952	-0.0592	0.0182	-0.0073	-0.0462	0.0165	0.9585
41.6711	-18.0787	452.5054	34.3944	-156.1357	-47.0798	542.106	2.2941	346.9277	-19.4381	127.9509	19.5607	365.1464	-0.0592	0.0182	-0.0073	-0.0462	0.0165	0.9585
41.6924	-18.2318	480.4977	35.5346	-165.9504	-48.3503	574.2376	-0.13826	317.7529	-16.8993	117.3649	18.124	334.9446	-0.0592	0.0182	-0.0073	-0.0462	0.0165	0.9585
41.7137	-17.224	501.2373	35.7899	-173.2722	-48.1924	597.3965	-2.0532	295.4645	-15.2348	109.2922	17.3581	311.8465	-0.0592	0.0182	-0.0073	-0.0462	0.0165	0.9585
41.735	-15.3642	515.0621	35.237	-178.1987	-46.8266	612.0997	-3.4612	279.3489	-14.3691	103.4683	17.1875	295.107	-0.0592	0.0182	-0.0073	-0.0462	0.0165	0.9585
41.7563	-13.0287	523.0385	34.037	-181.0758	-44.589	619.7425	-4.3533	268.1957	-14.1402	99.4427	17.4455	283.465	-0.0592	0.0182	-0.0073	-0.0462	0.0165	0.9585
41.7776	-10.5963	526.8059	32.4423	-182.4448	-41.9148	622.3898	-4.6636	260.4141	-14.3437	96.6243	17.9034	275.2583	-0.0592	0.0182	-0.0073	-0.0462	0.0165	0.9585
41.7989	-8.4011	528.4099	30.7508	-182.9875	-39.2671	622.5484	-4.2306	254.0938	-14.7657	94.3062	18.2856	268.4885	-0.0592	0.0182	-0.0073	-0.0462	0.0165	0.9585
41.8201	-6.6977	530.0692	29.2597	-183.4517	-37.0722	622.8754	-2.8278	247.1392	-15.1958	91.7168	18.2921	260.9674	-0.0592	0.0182	-0.0073	-0.0462	0.0165	0.9585
41.8414	-5.6263	533.8631	28.2213	-184.5517	-35.6589	625.8093	-0.26399	237.5708	-15.4312	88.1315	17.6405	250.6378	-0.0592	0.0182	-0.0073	-0.0462	0.0165	0.9585
41.8627	-5.2039	541.4364	27.7917	-186.8715	-35.2004	633.2364	3.5126	223.8777	-15.2964	83.0018	16.1242	235.9436	-0.0592	0.0182	-0.0073	-0.0462	0.0165	0.9585
41.884	-5.3448	553.7827	28.0007	-190.7848	-35.6884	646.2419	8.3291	205.3185	-14.6708	76.0639	13.6774	216.1414	-0.0592	0.0182	-0.0073	-0.0462	0.0165	0.9585
41.9053	-5.9001	571.1307	28.7564	-196.4118	-36.9507	665.0037	13.7188	182.11	-13.5172	67.4066	10.4334	191.4945	-0.0592	0.0182	-0.0073	-0.0462	0.0165	0.9585
41.9266	-6.6833	592.9891	29.8905	-203.6304	-38.7098	688.8774	18.9204	155.4364	-11.8917	57.4741	6.7317	163.2816	-0.0592	0.0182	-0.0073	-0.0462	0.0165	0.9585
41.9479	-7.4905	618.345	31.242	-212.1295	-40.6866	716.6348	23.0524	127.163	-9.9382	46.9597	3.0469	133.4814	-0.0592	0.0182	-0.0073	-0.0462	0.0165	0.9585
41.9691	-8.1322	645.8518	32.738	-221.4563	-42.7094	746.6904	25.3872	99.3395	-7.8667	36.6241	-0.13102	104.2392	-0.0592	0.0182	-0.0073	-0.0462	0.0165	0.9585
41.9904	-8.4699	673.9116	34.4001	-231.0432	-44.7397	777.2159	25.553	73.7523	-5.8767	27.1314	-2.447	77.4034	-0.0592	0.0182	-0.0073	-0.0462	0.0165	0.9585
42.0117	-8.442	700.8306	36.2794	-240.2687	-46.8084	806.3261	23.5891	51.6427	-4.1033	18.9448	-3.7586	54.2445	-0.0592	0.0182	-0.0073	-0.0462	0.0165	0.9585
42.033	-8.0723	725.0944	38.4114	-248.5598	-48.963	832.3744	19.9377	33.6111	-2.6273	12.2874	-4.1307	35.3723	-0.0592	0.0182	-0.0073	-0.0462	0.0165	0.9585
42.0543	-7.4708	745.7444	40.7925	-255.5378	-51.2366	854.3502	15.3246	19.7299	-1.4844	7.182	-3.7856	20.8501	-0.0592	0.0182	-0.0073	-0.0462	0.0165	0.9585
42.0756	-6.8157	762.7084	43.357	-261.1491	-53.6148	872.2311	10.5317	9.7262	-0.66704	3.5208	-3.0088	10.3905	-0.0592	0.0182	-0.0073	-0.0462	0.0165	0.9585
42.0969	-6.3087	776.9139	45.9826	-265.7088	-56.0292	887.1	6.2019	3.1089	-0.13101	1.1146	-2.0733	3.4829	-0.0592	0.0182	-0.0073	-0.0462	0.0165	0.9585
42.1181	-6.0896	789.927	48.5347	-269.769	-58.383	900.7188	2.7133	-0.75954	0.1826	-0.2794	-1.1815	-0.54237	-0.0592	0.0182	-0.0073	-0.0462	0.0165	0.9585
42.1394	-6.1699	803.2473	50.9112	-273.8684	-60.5849	914.7254	0.16795	-2.5887	0.33353	-0.92774	-0.43864	-2.4373	-0.0592	0.0182	-0.0073	-0.0462	0.0165	0.9585
42.1607	-6.4219	817.6143	53.0535	-278.2855	-62.553	929.8567	-1.5117	-3.0496	0.37603	-1.0795	0.12067	-2.9092	-0.0592	0.0182	-0.0073	-0.0462	0.0165	0.9585
42.182	-6.6396	832.5617	54.9352	-282.8884	-64.215	945.4754	-2.4874	-2.7057	0.35314	-0.94193	0.50404	-2.5476	-0.0592	0.0182	-0.0073	-0.0462	0.0165	0.9585
42.2033	-6.596	846.4898	56.5244	-287.1588	-65.4788	959.6745	-2.9448	-1.9921	0.29923	-0.67385	0.7383	-1.8117	-0.0592	0.0182	-0.0073	-0.0462	0.0165	0.9585
42.2246	-6.0795	857.1767	57.7425	-290.3718	-66.1947	969.8633	-3.0571	-1.2211	0.23975	-0.3894	0.85782	-1.0373	-0.0592	0.0182	-0.0073	-0.0462	0.0165	0.9585
42.2459	-4.9358	862.4798	58.4631	-291.8348	-66.1677	973.5718	-2.9651	-0.61036	0.19163	-0.16673	0.88996	-0.46198	-0.0592	0.0182	-0.0073	-0.0462	0.0165	0.9585
42.2671	-3.0968	860.9615	58.5516	-291.0958	-65.2143	969.1687	-2.7718	-0.30203	0.16532	-0.056427	0.85341	-0.24126	-0.0592	0.0182	-0.0073	-0.0462	0.0165	0.9585
42.2884	-0.57299	852.3094	57.9213	-288.0742	-63.2263	956.3214	-2.5411	-0.38607	0.16716	-0.091119	0.76005	-0.47844	-0.0592	0.0182	-0.0073	-0.0462	0.0165	0.9585
42.3097	2.5808	837.4539	56.5867	-283.0939	-60.2241	936.1171	-2.3059	-0.91257	0.19836	-0.2887	0.61672	-1.2384	-0.0592	0.0182	-0.0073	-0.0462	0.0165	0.9585
42.331	6.2783	818.3597	54.68	-276.8091	-56.3726	910.8221	-2.0776	-1.8889	0.25617	-0.65209	0.43081	-2.5341	-0.0592	0.0182	-0.0073	-0.0462	0.0165	0.9585
42.3523	10.399	797.5593	52.4346	-270.0482	-51.9676	883.3618	-1.857	-3.2588	0.33425	-1.1621	0.21492	-4.2933	-0.0592	0.0182	-0.0073	-0.0462	0.0165	0.9585
42.3736	14.8022	777.5932	50.1413	-263.6309	-47.379	856.6763	-1.6431	-4.8641	0.41812	-1.7629	-0.0048793	-6.3148	-0.0592	0.0182	-0.0073	-0.0462	0.0165	0.9585
42.3949	19.3587	760.4979	48.0918	-258.2056	-42.9735	833.1344	-1.442	-6.3985	0.47974	-2.3445	-0.18125	-8.2049	-0.0592	0.0182	-0.0073	-0.0462	0.0165	0.9585
42.4161	23.952	747.4426	46.5246	-254.1302	-39.0561	814.1389	-1.2733	-7.3483	0.47232	-2.7192	-0.24034	-9.3025	-0.0592	0.0182	-0.0073	-0.0462	0.0165	0.9585
42.4374	28.4592	738.5888	45.5913	-251.4281	-35.8471	799.9793	-1.1772	-6.9408	0.32932	-2.6015	-0.082238	-8.6166	-0.0592	0.0182	-0.0073	-0.0462	0.0165	0.9585
42.4587	32.7365	733.097	45.342	-249.7886	-33.4673	789.8434	-1.2214	-4.1111	-0.03283	-1.5964	0.42461	-4.7918	-0.0592	0.0182	-0.0073	-0.0462	0.0165	0.9585
42.48	36.599	729.2351	45.7301	-248.604	-31.9478	781.9527	-1.5052	2.4732	-0.70502	0.79243	1.4413	3.8543	-0.0592	0.0182	-0.0073	-0.0462	0.0165	0.9585
42.5013	39.8241	724.6681	46.6232	-247.0681	-31.2418	773.8844	-2.1577	14.3001	-1.7764	5.1236	3.1438	19.1857	-0.0592	0.0182	-0.0073	-0.0462	0.0165	0.9585
42.5226	42.1597	716.8311	47.8117	-244.3027	-31.2323	762.9735	-3.324	32.7575	-3.3114	11.9266	5.683	42.9172	-0.0592	0.0182	-0.0073	-0.0462	0.0165	0.9585
42.5439	43.3566	703.3208	49.0204	-239.491	-31.7344	746.7294	-5.1417	58.6994	-5.3152	21.5432	9.1237	76.0541	-0.0592	0.0182	-0.0073	-0.0462	0.0165	0.9585
42.5651	43.2263	682.3679	49.9323	-232.0397	-32.4992	723.3216	-7.7333	92.1032	-7.7904	33.9896	13.5166	118.4627	-0.0592	0.0182	-0.0073	-0.0462	0.0165	0.9585
42.5864	41.6964	653.2509	50.2504	-221.7202	-33.2565	691.9974	-11.2106	131.9501	-10.9202	48.8871	19.1162	168.7546	-0.0592	0.0182	-0.0073	-0.0462	0.0165	0.9585
42.6077	38.8353	616.4295	49.7804	-208.7153	-33.7909	653.1988	-15.4644	176.1355	-14.8942	65.434	26.0809	224.1914	-0.0592	0.0182	-0.0073	-0.0462	0.0165	0.9585
42.629	34.9037	573.5445	48.4559	-193.6176	-33.9482	608.5479	-20.1434	222.2237	-19.6287	82.7115	34.1377	281.6306	-0.0592	0.0182	-0.0073	-0.0462	0.0165	0.9585
